# xmcd
# Track frame offsets:
# 150
# 12445
# 22270
# 30893
# 41980
# 54053
# 65031
# 75906
# 85318
# 95160
# 105895
# 115949
# 124035
# 129735
# 141220
# 150445
# 159745
# 169945
#
# Disc length: 2410 seconds
# Revision: 0
# Processed by: cddbd v1.5.1PL0 Copyright (c) Steve Scherf et al.
# Submitted via: VisiTrax 2.9.10.220 - For more info visit www.synapsa.com
#
DISCID=e6096812
DTITLE=Johnny Cash - This Is Gold [CD3]
DYEAR=2004
DGENRE=Country
TTITLE0=I Walk The Line
TTITLE1=Born To Lose
TTITLE2=I Forgot To Remember To Forget
TTITLE3=I Love You Because
TTITLE4=Goodnight Irene
TTITLE5=The Ways Of A Woman In Love
TTITLE6=I Just Thought You'd Like To Know
TTITLE7=Down The Street To 301
TTITLE8=The Story Of A Broken Heart
TTITLE9=Cold Cold Heart
TTITLE10=I Could Never Be Ashamed Of You
TTITLE11=You're My Baby (Little Wooly Booger)
TTITLE12=My Treasure
TTITLE13=Port Of Lonely Hearts
TTITLE14=I Couldn't Keep From Crying
TTITLE15=New Mexico
TTITLE16=Straight A's In Love
TTITLE17=Wide Open Road
EXTD=
EXTT0=
EXTT1=
EXTT2=
EXTT3=
EXTT4=
EXTT5=
EXTT6=
EXTT7=
EXTT8=
EXTT9=
EXTT10=
EXTT11=
EXTT12=
EXTT13=
EXTT14=
EXTT15=
EXTT16=
EXTT17=
PLAYORDER=
